<svg width="54" height="54" viewBox="0 0 54 54" fill="none" xmlns="http://www.w3.org/2000/svg">
<path d="M42.75 20.25C42.75 23.5125 41.7825 26.505 40.1175 29.0025C37.6875 32.6025 33.84 35.145 29.3625 35.7975C28.5975 35.9325 27.81 36 27 36C26.19 36 25.4025 35.9325 24.6375 35.7975C20.16 35.145 16.3125 32.6025 13.8825 29.0025C12.2175 26.505 11.25 23.5125 11.25 20.25C11.25 11.5425 18.2925 4.5 27 4.5C35.7075 4.5 42.75 11.5425 42.75 20.25Z" fill="#3A342A"/>
<path d="M42.75 20.25C42.75 23.5125 41.7825 26.505 40.1175 29.0025C37.6875 32.6025 33.84 35.145 29.3625 35.7975C28.5975 35.9325 27.81 36 27 36C26.19 36 25.4025 35.9325 24.6375 35.7975C20.16 35.145 16.3125 32.6025 13.8825 29.0025C12.2175 26.505 11.25 23.5125 11.25 20.25C11.25 11.5425 18.2925 4.5 27 4.5C35.7075 4.5 42.75 11.5425 42.75 20.25Z" fill="url(#paint0_radial_40_103)" fill-opacity="0.25"/>
<path d="M47.8125 41.5575L44.1 42.435C43.2675 42.6375 42.615 43.2675 42.435 44.1L41.6475 47.4075C41.22 49.2075 38.925 49.7475 37.7325 48.33L27 36L16.2675 48.3525C15.075 49.77 12.78 49.23 12.3525 47.43L11.565 44.1225C11.3625 43.29 10.71 42.6375 9.89999 42.4575L6.18749 41.58C4.47749 41.175 3.86999 39.0375 5.10749 37.8L13.8825 29.025C16.3125 32.625 20.16 35.1675 24.6375 35.82C25.4025 35.955 26.19 36.0225 27 36.0225C27.81 36.0225 28.5975 35.955 29.3625 35.82C33.84 35.1675 37.6875 32.625 40.1175 29.025L48.8925 37.8C50.13 39.015 49.5225 41.1525 47.8125 41.5575Z" fill="#3A342A"/>
<path d="M47.8125 41.5575L44.1 42.435C43.2675 42.6375 42.615 43.2675 42.435 44.1L41.6475 47.4075C41.22 49.2075 38.925 49.7475 37.7325 48.33L27 36L16.2675 48.3525C15.075 49.77 12.78 49.23 12.3525 47.43L11.565 44.1225C11.3625 43.29 10.71 42.6375 9.89999 42.4575L6.18749 41.58C4.47749 41.175 3.86999 39.0375 5.10749 37.8L13.8825 29.025C16.3125 32.625 20.16 35.1675 24.6375 35.82C25.4025 35.955 26.19 36.0225 27 36.0225C27.81 36.0225 28.5975 35.955 29.3625 35.82C33.84 35.1675 37.6875 32.625 40.1175 29.025L48.8925 37.8C50.13 39.015 49.5225 41.1525 47.8125 41.5575Z" fill="url(#paint1_radial_40_103)" fill-opacity="0.25"/>
<path d="M28.305 13.455L29.6325 16.11C29.8125 16.47 30.285 16.83 30.7125 16.8975L33.12 17.3025C34.65 17.55 35.01 18.675 33.9075 19.7775L32.04 21.645C31.725 21.96 31.545 22.5675 31.6575 23.0175L32.1975 25.335C32.625 27.1575 31.6575 27.8775 30.0375 26.91L27.7875 25.5825C27.3825 25.335 26.7075 25.335 26.3025 25.5825L24.0525 26.91C22.4325 27.855 21.465 27.1575 21.8925 25.335L22.4325 23.0175C22.5225 22.59 22.365 21.96 22.05 21.645L20.1825 19.7775C19.08 18.675 19.44 17.5725 20.97 17.3025L23.3775 16.8975C23.7825 16.83 24.255 16.47 24.435 16.11L25.7625 13.455C26.415 12.015 27.585 12.015 28.305 13.455Z" fill="#3A342A"/>
<path d="M28.305 13.455L29.6325 16.11C29.8125 16.47 30.285 16.83 30.7125 16.8975L33.12 17.3025C34.65 17.55 35.01 18.675 33.9075 19.7775L32.04 21.645C31.725 21.96 31.545 22.5675 31.6575 23.0175L32.1975 25.335C32.625 27.1575 31.6575 27.8775 30.0375 26.91L27.7875 25.5825C27.3825 25.335 26.7075 25.335 26.3025 25.5825L24.0525 26.91C22.4325 27.855 21.465 27.1575 21.8925 25.335L22.4325 23.0175C22.5225 22.59 22.365 21.96 22.05 21.645L20.1825 19.7775C19.08 18.675 19.44 17.5725 20.97 17.3025L23.3775 16.8975C23.7825 16.83 24.255 16.47 24.435 16.11L25.7625 13.455C26.415 12.015 27.585 12.015 28.305 13.455Z" fill="url(#paint2_radial_40_103)" fill-opacity="0.25"/>
<path d="M27 36C27.81 36 28.5975 35.9325 29.3625 35.7975C33.84 35.145 37.6875 32.6025 40.1175 29.0025C41.7825 26.505 42.75 23.5125 42.75 20.25C42.75 11.5425 35.7075 4.5 27 4.5C18.2925 4.5 11.25 11.5425 11.25 20.25C11.25 23.5125 12.2175 26.505 13.8825 29.0025C16.3125 32.6025 20.16 35.145 24.6375 35.7975C25.4025 35.9325 26.19 36 27 36ZM27 36L37.7325 48.33C38.925 49.7475 41.22 49.2075 41.6475 47.4075L42.435 44.1C42.615 43.2675 43.2675 42.6375 44.1 42.435L47.8125 41.5575C49.5225 41.1525 50.13 39.015 48.8925 37.8L40.1175 29.025C37.6875 32.625 33.84 35.1675 29.3625 35.82C28.5975 35.955 27.81 36.0225 27 36.0225C26.19 36.0225 25.4025 35.955 24.6375 35.82C20.16 35.1675 16.3125 32.625 13.8825 29.025L5.10749 37.8C3.86999 39.0375 4.47749 41.175 6.18749 41.58L9.89999 42.4575C10.71 42.6375 11.3625 43.29 11.565 44.1225L12.3525 47.43C12.78 49.23 15.075 49.77 16.2675 48.3525L27 36ZM28.305 13.455L29.6325 16.11C29.8125 16.47 30.285 16.83 30.7125 16.8975L33.12 17.3025C34.65 17.55 35.01 18.675 33.9075 19.7775L32.04 21.645C31.725 21.96 31.545 22.5675 31.6575 23.0175L32.1975 25.335C32.625 27.1575 31.6575 27.8775 30.0375 26.91L27.7875 25.5825C27.3825 25.335 26.7075 25.335 26.3025 25.5825L24.0525 26.91C22.4325 27.855 21.465 27.1575 21.8925 25.335L22.4325 23.0175C22.5225 22.59 22.365 21.96 22.05 21.645L20.1825 19.7775C19.08 18.675 19.44 17.5725 20.97 17.3025L23.3775 16.8975C23.7825 16.83 24.255 16.47 24.435 16.11L25.7625 13.455C26.415 12.015 27.585 12.015 28.305 13.455Z" stroke="#FED02F" stroke-width="2" stroke-linecap="round" stroke-linejoin="round"/>
<defs>
<radialGradient id="paint0_radial_40_103" cx="0" cy="0" r="1" gradientUnits="userSpaceOnUse" gradientTransform="translate(27 21.15) rotate(90) scale(28.35 28.6252)">
<stop stop-color="#FED02F" stop-opacity="0"/>
<stop offset="1" stop-color="#FED02F" stop-opacity="0.3"/>
</radialGradient>
<radialGradient id="paint1_radial_40_103" cx="0" cy="0" r="1" gradientUnits="userSpaceOnUse" gradientTransform="translate(27 21.15) rotate(90) scale(28.35 28.6252)">
<stop stop-color="#FED02F" stop-opacity="0"/>
<stop offset="1" stop-color="#FED02F" stop-opacity="0.3"/>
</radialGradient>
<radialGradient id="paint2_radial_40_103" cx="0" cy="0" r="1" gradientUnits="userSpaceOnUse" gradientTransform="translate(27 21.15) rotate(90) scale(28.35 28.6252)">
<stop stop-color="#FED02F" stop-opacity="0"/>
<stop offset="1" stop-color="#FED02F" stop-opacity="0.3"/>
</radialGradient>
</defs>
</svg>
