<svg width="50" height="50" viewBox="0 0 50 50" fill="none" xmlns="http://www.w3.org/2000/svg">
<path d="M26.2708 4.60416C25.5208 4.02082 24.4792 4.02082 23.7292 4.60416C19.7709 7.62499 8.08338 17.4792 8.14588 28.9583C8.14588 38.25 15.7084 45.8333 25.0209 45.8333C34.3334 45.8333 41.8958 38.2708 41.8958 28.9792C41.9167 17.6667 30.2083 7.64582 26.2708 4.60416Z" fill="#3A332A"/>
<path d="M26.2708 4.60416C25.5208 4.02082 24.4792 4.02082 23.7292 4.60416C19.7709 7.62499 8.08338 17.4792 8.14588 28.9583C8.14588 38.25 15.7084 45.8333 25.0209 45.8333C34.3334 45.8333 41.8958 38.2708 41.8958 28.9792C41.9167 17.6667 30.2083 7.64582 26.2708 4.60416Z" fill="url(#paint0_radial_40_111)" fill-opacity="0.25"/>
<path d="M26.2708 4.60416C25.5208 4.02082 24.4792 4.02082 23.7292 4.60416C19.7709 7.62499 8.08338 17.4792 8.14588 28.9583C8.14588 38.25 15.7084 45.8333 25.0209 45.8333C34.3334 45.8333 41.8958 38.2708 41.8958 28.9792C41.9167 17.6667 30.2083 7.64582 26.2708 4.60416Z" stroke="#FED02F" stroke-width="2" stroke-miterlimit="10"/>
<defs>
<radialGradient id="paint0_radial_40_111" cx="0" cy="0" r="1" gradientUnits="userSpaceOnUse" gradientTransform="translate(25.0208 25) rotate(90) scale(20.8333 16.8751)">
<stop stop-color="#FED02F" stop-opacity="0"/>
<stop offset="1" stop-color="#FED02F" stop-opacity="0.3"/>
</radialGradient>
</defs>
</svg>
