<svg width="54" height="54" viewBox="0 0 54 54" fill="none" xmlns="http://www.w3.org/2000/svg">
<path d="M16.65 14.22L35.7525 7.85251C44.325 4.99501 48.9825 9.67501 46.1475 18.2475L39.78 37.35C35.505 50.1975 28.485 50.1975 24.21 37.35L22.32 31.68L16.65 29.79C3.80253 25.515 3.80253 18.5175 16.65 14.22Z" fill="#3A342A"/>
<path d="M16.65 14.22L35.7525 7.85251C44.325 4.99501 48.9825 9.67501 46.1475 18.2475L39.78 37.35C35.505 50.1975 28.485 50.1975 24.21 37.35L22.32 31.68L16.65 29.79C3.80253 25.515 3.80253 18.5175 16.65 14.22Z" fill="url(#paint0_radial_502_579)" fill-opacity="0.25"/>
<path d="M16.65 14.22L35.7525 7.85251C44.325 4.99501 48.9825 9.67501 46.1475 18.2475L39.78 37.35C35.505 50.1975 28.485 50.1975 24.21 37.35L22.32 31.68L16.65 29.79C3.80253 25.515 3.80253 18.5175 16.65 14.22Z" stroke="#FED02F" stroke-width="2" stroke-linecap="round" stroke-linejoin="round"/>
<path d="M22.7476 30.7125L30.8026 22.635" stroke="#FED02F" stroke-width="2" stroke-linecap="round" stroke-linejoin="round"/>
<defs>
<radialGradient id="paint0_radial_502_579" cx="0" cy="0" r="1" gradientUnits="userSpaceOnUse" gradientTransform="translate(26.9962 26.9995) rotate(90) scale(19.9862 19.9818)">
<stop stop-color="#FED02F" stop-opacity="0"/>
<stop offset="1" stop-color="#FED02F" stop-opacity="0.3"/>
</radialGradient>
</defs>
</svg>
