<svg width="24" height="23" viewBox="0 0 24 23" fill="none" xmlns="http://www.w3.org/2000/svg">
<path d="M24 12.1766C24 10.6747 22.8175 9.48186 21.3764 9.48186C20.6956 9.48091 20.0408 9.74999 19.5485 10.233C17.7421 8.90751 15.2688 8.04627 12.5162 7.93583L13.7203 2.14872L17.6343 3.00996C17.6776 4.02608 18.4945 4.84347 19.5055 4.84347C20.5377 4.84347 21.3764 3.98223 21.3764 2.92152C21.3764 1.8614 20.5378 1.00002 19.5055 1.00002C18.7744 1.00002 18.129 1.44178 17.8279 2.08243L13.3443 0.933706C13.2152 0.911415 13.0861 0.933706 13 1C12.8925 1.06629 12.8281 1.17659 12.8068 1.30918L11.3306 7.93583C8.53502 8.02441 6.27946 8.90751 4.45163 10.2551C3.95931 9.77215 3.30444 9.50313 2.62365 9.50416C1.16124 9.50416 0 10.7187 0 12.1989C0 13.3032 0.645027 14.2307 1.54851 14.6508C1.50464 14.9208 1.48305 15.1942 1.48397 15.468C1.48397 19.6202 6.19378 23 12.0001 23C17.8067 23 22.5165 19.6425 22.5165 15.468C22.5163 15.1942 22.4947 14.921 22.4519 14.6508C23.355 14.2307 24 13.2809 24 12.1766ZM5.97844 14.0981C5.97844 13.038 6.81696 12.1766 7.84968 12.1766C8.88183 12.1766 9.72049 13.0378 9.72049 14.0981C9.72049 15.1584 8.88197 16.0201 7.84968 16.0201C6.8171 16.0418 5.97844 15.1584 5.97844 14.0981ZM16.4518 19.2006C15.1614 20.526 12.7097 20.6145 12.0001 20.6145C11.269 20.6145 8.81743 20.5037 7.54823 19.2006C7.35502 19.0018 7.35502 18.6925 7.54823 18.4938C7.74187 18.2953 8.04289 18.2953 8.23652 18.4938C9.05391 19.3333 10.7744 19.6202 12.0001 19.6202C13.2261 19.6202 14.9678 19.3332 15.7635 18.4938C15.9571 18.2953 16.2581 18.2953 16.4518 18.4938C16.6237 18.6925 16.6237 19.0018 16.4518 19.2006ZM16.1075 16.0419C15.0752 16.0419 14.2367 15.1807 14.2367 14.1204C14.2367 13.0601 15.0752 12.1989 16.1075 12.1989C17.1401 12.1989 17.9786 13.0601 17.9786 14.1204C17.9786 15.1582 17.1401 16.0419 16.1075 16.0419Z" fill="white"/>
</svg>
