<svg width="60" height="60" viewBox="0 0 60 60" fill="none" xmlns="http://www.w3.org/2000/svg">
<path d="M26.9 15.725L18.9 20.175C17.1 21.175 15.6 23.7 15.6 25.775V34.25C15.6 36.325 17.075 38.85 18.9 39.85L26.9 44.3C28.6 45.25 31.4 45.25 33.125 44.3L41.125 39.85C42.925 38.85 44.425 36.325 44.425 34.25V25.75C44.425 23.675 42.95 21.15 41.125 20.15L33.125 15.7C31.4 14.75 28.6 14.75 26.9 15.725Z" fill="#3B342A"/>
<path d="M26.9 15.725L18.9 20.175C17.1 21.175 15.6 23.7 15.6 25.775V34.25C15.6 36.325 17.075 38.85 18.9 39.85L26.9 44.3C28.6 45.25 31.4 45.25 33.125 44.3L41.125 39.85C42.925 38.85 44.425 36.325 44.425 34.25V25.75C44.425 23.675 42.95 21.15 41.125 20.15L33.125 15.7C31.4 14.75 28.6 14.75 26.9 15.725Z" fill="url(#paint0_radial_9_97)" fill-opacity="0.25"/>
<path d="M26.9 15.725L18.9 20.175C17.1 21.175 15.6 23.7 15.6 25.775V34.25C15.6 36.325 17.075 38.85 18.9 39.85L26.9 44.3C28.6 45.25 31.4 45.25 33.125 44.3L41.125 39.85C42.925 38.85 44.425 36.325 44.425 34.25V25.75C44.425 23.675 42.95 21.15 41.125 20.15L33.125 15.7C31.4 14.75 28.6 14.75 26.9 15.725Z" stroke="#FED02F" stroke-width="2" stroke-linecap="round" stroke-linejoin="round"/>
<path d="M16.75 23.15L30 30.825L43.15 23.2" stroke="#FED02F" stroke-width="2" stroke-linecap="round" stroke-linejoin="round"/>
<path d="M30 44.425V30.8" stroke="#FED02F" stroke-width="2" stroke-linecap="round" stroke-linejoin="round"/>
<path d="M55 37.5C55 47.175 47.175 55 37.5 55L40.125 50.625" stroke="#FED02F" stroke-width="2" stroke-linecap="round" stroke-linejoin="round"/>
<path d="M5 22.5C5 12.825 12.825 5 22.5 5L19.875 9.375" stroke="#FED02F" stroke-width="2" stroke-linecap="round" stroke-linejoin="round"/>
<defs>
<radialGradient id="paint0_radial_9_97" cx="0" cy="0" r="1" gradientUnits="userSpaceOnUse" gradientTransform="translate(30.0125 30.0016) rotate(90) scale(15.011 14.4125)">
<stop stop-color="#FED02F" stop-opacity="0"/>
<stop offset="1" stop-color="#FED02F" stop-opacity="0.3"/>
</radialGradient>
</defs>
</svg>
