<svg width="108" height="108" viewBox="0 0 108 108" fill="none" xmlns="http://www.w3.org/2000/svg">
<path d="M34.14 39.2C35.74 32.28 46.16 32.28 47.74 39.2C48.68 43.26 46.1 46.7 43.86 48.84C42.22 50.4 39.64 50.38 38 48.84C35.78 46.7 33.2 43.26 34.14 39.2Z" fill="#5A4D2A" fill-opacity="0.35" stroke="#FED02F" stroke-width="2"/>
<path d="M60.14 63.2C61.74 56.28 72.22 56.28 73.82 63.2C74.76 67.26 72.18 70.7 69.92 72.84C68.28 74.4 65.68 74.38 64.04 72.84C61.78 70.7 59.2 67.26 60.14 63.2Z" fill="#5A4D2A" fill-opacity="0.35" stroke="#FED02F" stroke-width="2"/>
<path d="M54 40H59.36C63.06 40 64.78 44.58 62 47.02L46.02 61C43.24 63.42 44.96 68 48.64 68H54" stroke="#FED02F" stroke-width="2" stroke-linecap="round" stroke-linejoin="round"/>
<path d="M40.9724 41H40.9955" stroke="#FED02F" stroke-width="3" stroke-linecap="round" stroke-linejoin="round"/>
<path d="M66.9724 65H66.9955" stroke="#FED02F" stroke-width="3" stroke-linecap="round" stroke-linejoin="round"/>
<g opacity="0.35" filter="url(#filter0_f_2_440)">
<circle cx="54" cy="54" r="24" fill="url(#paint0_radial_2_440)"/>
</g>
<defs>
<filter id="filter0_f_2_440" x="0" y="0" width="108" height="108" filterUnits="userSpaceOnUse" color-interpolation-filters="sRGB">
<feFlood flood-opacity="0" result="BackgroundImageFix"/>
<feBlend mode="normal" in="SourceGraphic" in2="BackgroundImageFix" result="shape"/>
<feGaussianBlur stdDeviation="15" result="effect1_foregroundBlur_2_440"/>
</filter>
<radialGradient id="paint0_radial_2_440" cx="0" cy="0" r="1" gradientUnits="userSpaceOnUse" gradientTransform="translate(54 54) rotate(90) scale(24)">
<stop stop-color="#FED02F"/>
<stop offset="1" stop-color="#FED02F" stop-opacity="0"/>
</radialGradient>
</defs>
</svg>
