<svg width="38" height="38" viewBox="0 0 38 38" fill="none" xmlns="http://www.w3.org/2000/svg">
<path d="M19.6808 14.0268C17.8331 14.7947 14.1392 16.3859 8.60067 18.7989C7.70133 19.1568 7.2295 19.5067 7.18675 19.8487C7.11392 20.4282 7.83908 20.6562 8.82392 20.9649C8.9585 21.0077 9.09783 21.0504 9.24033 21.0979C10.2109 21.413 11.5156 21.7819 12.1933 21.7962C12.8092 21.8088 13.4963 21.5555 14.2548 21.0362C19.4291 17.5417 22.1002 15.7763 22.268 15.7383C22.3868 15.7114 22.5514 15.6766 22.6623 15.7763C22.7731 15.8745 22.762 16.0613 22.7509 16.112C22.6781 16.4176 19.8376 19.0602 18.3651 20.4282C17.9059 20.8541 17.5813 21.1565 17.5148 21.2262C17.366 21.3798 17.214 21.527 17.0683 21.6679C16.1658 22.5356 15.4913 23.1879 17.1063 24.2519C17.8596 24.7485 18.4666 25.1614 19.0679 25.5705L19.1219 25.6073C19.798 26.068 20.4725 26.5272 21.3465 27.1003C21.5682 27.246 21.7803 27.3964 21.9878 27.5437C22.7747 28.1058 23.4824 28.6092 24.3564 28.5301C24.8631 28.4826 25.3888 28.006 25.6547 26.5826C26.2833 23.2164 27.5215 15.9268 27.8081 12.9216C27.8255 12.6721 27.8149 12.4214 27.7764 12.1743C27.7534 11.9746 27.6562 11.791 27.5041 11.6597C27.2777 11.4744 26.9262 11.4348 26.7678 11.438C26.0538 11.4507 24.9581 11.8323 19.6808 14.0268Z" fill="white"/>
</svg>
