<svg width="56" height="56" viewBox="0 0 56 56" fill="none" xmlns="http://www.w3.org/2000/svg">
<path d="M4.66663 30.0533V25.9467C4.66663 23.52 6.64996 21.5133 9.09996 21.5133C13.3233 21.5133 15.05 18.5267 12.9266 14.8633C11.7133 12.7633 12.4366 10.0333 14.56 8.81999L18.5966 6.50999C20.44 5.41333 22.82 6.06666 23.9166 7.90999L24.1733 8.35333C26.2733 12.0167 29.7266 12.0167 31.85 8.35333L32.1066 7.90999C33.2033 6.06666 35.5833 5.41333 37.4266 6.50999L41.4633 8.81999C43.5866 10.0333 44.31 12.7633 43.0966 14.8633C40.9733 18.5267 42.7 21.5133 46.9233 21.5133C49.35 21.5133 51.3566 23.4967 51.3566 25.9467V30.0533C51.3566 32.48 49.3733 34.4867 46.9233 34.4867C42.7 34.4867 40.9733 37.4733 43.0966 41.1367C44.31 43.26 43.5866 45.9667 41.4633 47.18L37.4266 49.49C35.5833 50.5867 33.2033 49.9333 32.1066 48.09L31.85 47.6467C29.75 43.9833 26.2966 43.9833 24.1733 47.6467L23.9166 48.09C22.82 49.9333 20.44 50.5867 18.5966 49.49L14.56 47.18C12.4366 45.9667 11.7133 43.2367 12.9266 41.1367C15.05 37.4733 13.3233 34.4867 9.09996 34.4867C6.64996 34.4867 4.66663 32.48 4.66663 30.0533Z" fill="#3A332A"/>
<path d="M4.66663 30.0533V25.9467C4.66663 23.52 6.64996 21.5133 9.09996 21.5133C13.3233 21.5133 15.05 18.5267 12.9266 14.8633C11.7133 12.7633 12.4366 10.0333 14.56 8.81999L18.5966 6.50999C20.44 5.41333 22.82 6.06666 23.9166 7.90999L24.1733 8.35333C26.2733 12.0167 29.7266 12.0167 31.85 8.35333L32.1066 7.90999C33.2033 6.06666 35.5833 5.41333 37.4266 6.50999L41.4633 8.81999C43.5866 10.0333 44.31 12.7633 43.0966 14.8633C40.9733 18.5267 42.7 21.5133 46.9233 21.5133C49.35 21.5133 51.3566 23.4967 51.3566 25.9467V30.0533C51.3566 32.48 49.3733 34.4867 46.9233 34.4867C42.7 34.4867 40.9733 37.4733 43.0966 41.1367C44.31 43.26 43.5866 45.9667 41.4633 47.18L37.4266 49.49C35.5833 50.5867 33.2033 49.9333 32.1066 48.09L31.85 47.6467C29.75 43.9833 26.2966 43.9833 24.1733 47.6467L23.9166 48.09C22.82 49.9333 20.44 50.5867 18.5966 49.49L14.56 47.18C12.4366 45.9667 11.7133 43.2367 12.9266 41.1367C15.05 37.4733 13.3233 34.4867 9.09996 34.4867C6.64996 34.4867 4.66663 32.48 4.66663 30.0533Z" fill="url(#paint0_radial_52_216)" fill-opacity="0.25"/>
<path d="M4.66663 30.0533V25.9467C4.66663 23.52 6.64996 21.5133 9.09996 21.5133C13.3233 21.5133 15.05 18.5267 12.9266 14.8633C11.7133 12.7633 12.4366 10.0333 14.56 8.81999L18.5966 6.50999C20.44 5.41333 22.82 6.06666 23.9166 7.90999L24.1733 8.35333C26.2733 12.0167 29.7266 12.0167 31.85 8.35333L32.1066 7.90999C33.2033 6.06666 35.5833 5.41333 37.4266 6.50999L41.4633 8.81999C43.5866 10.0333 44.31 12.7633 43.0966 14.8633C40.9733 18.5267 42.7 21.5133 46.9233 21.5133C49.35 21.5133 51.3566 23.4967 51.3566 25.9467V30.0533C51.3566 32.48 49.3733 34.4867 46.9233 34.4867C42.7 34.4867 40.9733 37.4733 43.0966 41.1367C44.31 43.26 43.5866 45.9667 41.4633 47.18L37.4266 49.49C35.5833 50.5867 33.2033 49.9333 32.1066 48.09L31.85 47.6467C29.75 43.9833 26.2966 43.9833 24.1733 47.6467L23.9166 48.09C22.82 49.9333 20.44 50.5867 18.5966 49.49L14.56 47.18C12.4366 45.9667 11.7133 43.2367 12.9266 41.1367C15.05 37.4733 13.3233 34.4867 9.09996 34.4867C6.64996 34.4867 4.66663 32.48 4.66663 30.0533Z" stroke="#FED02F" stroke-width="2" stroke-miterlimit="10" stroke-linecap="round" stroke-linejoin="round"/>
<path d="M28 34.0667C31.3505 34.0667 34.0667 31.3505 34.0667 28C34.0667 24.6495 31.3505 21.9333 28 21.9333C24.6495 21.9333 21.9333 24.6495 21.9333 28C21.9333 31.3505 24.6495 34.0667 28 34.0667Z" stroke="#FED02F" stroke-width="2" stroke-miterlimit="10" stroke-linecap="round" stroke-linejoin="round"/>
<defs>
<radialGradient id="paint0_radial_52_216" cx="0" cy="0" r="1" gradientUnits="userSpaceOnUse" gradientTransform="translate(28.0116 28) rotate(90) scale(22.0241 23.345)">
<stop stop-color="#FED02F" stop-opacity="0"/>
<stop offset="1" stop-color="#FED02F" stop-opacity="0.3"/>
</radialGradient>
</defs>
</svg>
